<svg width="41" height="41" viewBox="0 0 41 41" fill="none" xmlns="http://www.w3.org/2000/svg">
<g clip-path="url(#clip0_174_418)">
<path d="M22.2083 11.9587H18.7917V18.792H11.9583V22.2087H18.7917V29.042H22.2083V22.2087H29.0417V18.792H22.2083V11.9587ZM20.5 3.41699C11.07 3.41699 3.41667 11.0703 3.41667 20.5003C3.41667 29.9303 11.07 37.5837 20.5 37.5837C29.93 37.5837 37.5833 29.9303 37.5833 20.5003C37.5833 11.0703 29.93 3.41699 20.5 3.41699ZM20.5 34.167C12.9663 34.167 6.83334 28.0341 6.83334 20.5003C6.83334 12.9666 12.9663 6.83366 20.5 6.83366C28.0338 6.83366 34.1667 12.9666 34.1667 20.5003C34.1667 28.0341 28.0338 34.167 20.5 34.167Z" fill="#1E1E1E"/>
</g>
<defs>
<clipPath id="clip0_174_418">
<rect width="41" height="41" fill="white"/>
</clipPath>
</defs>
</svg>
