<svg width="481" height="396" viewBox="0 0 481 396" fill="none" xmlns="http://www.w3.org/2000/svg">
<path d="M-204 12.2198C-196.833 11.5478 -189.941 7.32295 -183.238 5.10504C-168.379 0.188269 -150.985 0.138139 -135.414 0.138139C-103.304 0.138139 -72.4989 -1.91431 -42.1992 9.80346C-22.0401 17.5995 -4.7238 23.9813 12.3549 37.5913C33.0014 54.0443 51.9999 77.5572 67.9113 97.9995C90.2168 126.656 105.266 158.059 123.325 189.149C145.286 226.959 174.822 266.433 208.377 296.004C238.698 322.725 278.86 340.825 318.631 351.848C341.597 358.214 372.317 367.42 396.525 367.42" stroke="white" stroke-width="3" stroke-linecap="round"/>
<path d="M419.721 333.592C436.959 352.714 455.755 371.223 471.268 391.584" stroke="white" stroke-width="3" stroke-linecap="round"/>
<path d="M417.143 394C421.066 371.935 465.016 363.154 479 345.673" stroke="white" stroke-width="3" stroke-linecap="round"/>
</svg>
