<svg width="39" height="36" viewBox="0 0 39 36" fill="none" xmlns="http://www.w3.org/2000/svg">
<path d="M19.5 3C11.4424 3 4.875 9.06223 4.875 16.5C4.875 23.9378 11.4424 30 19.5 30V34.6377L22.001 33.1582C25.6342 31.0072 32.2596 26.363 33.7981 19.3242C34.0087 18.4163 34.125 17.4716 34.125 16.5C34.125 9.06223 27.5576 3 19.5 3ZM19.5 6C25.8009 6 30.875 10.6838 30.875 16.5C30.875 17.2563 30.785 17.9931 30.6179 18.709L30.6147 18.7207L30.6116 18.7295C29.6461 23.1516 25.9539 26.4078 22.75 28.708V26.6982L20.9219 26.9092C20.4328 26.9656 19.9614 27 19.5 27C13.1991 27 8.125 22.3162 8.125 16.5C8.125 10.6838 13.1991 6 19.5 6Z" fill="#FF5400"/>
</svg>
