<svg width="30" height="32" viewBox="0 0 30 32" fill="none" xmlns="http://www.w3.org/2000/svg">
<path d="M14.625 0C6.56741 0 0 6.06223 0 13.5C0 20.9378 6.56741 27 14.625 27V31.6377L17.126 30.1582C20.7592 28.0072 27.3846 23.363 28.9231 16.3242C29.1337 15.4163 29.25 14.4716 29.25 13.5C29.25 6.06223 22.6826 0 14.625 0ZM14.625 3C20.9259 3 26 7.68377 26 13.5C26 14.2563 25.91 14.9931 25.7429 15.709L25.7397 15.7207L25.7366 15.7295C24.7711 20.1516 21.0789 23.4078 17.875 25.708V23.6982L16.0469 23.9092C15.5578 23.9656 15.0864 24 14.625 24C8.32409 24 3.25 19.3162 3.25 13.5C3.25 7.68377 8.32409 3 14.625 3Z" fill="#FF5400"/>
</svg>
