<svg width="39" height="50" viewBox="0 0 39 50" fill="none" xmlns="http://www.w3.org/2000/svg">
<path d="M29.25 10.5263L28.1775 11.9737C27.1538 13.3421 25.7888 13.9474 24.4238 13.9474C21.9375 13.9474 19.5 11.8947 19.5 8.68421V0C19.5 0 0 10.5263 0 28.9474C0 40.5789 8.72625 50 19.5 50C30.2738 50 39 40.5789 39 28.9474C39 21.1579 35.0756 14.1579 29.25 10.5263ZM19.5 44.7368C16.8187 44.7368 14.625 42.4474 14.625 39.6316C14.625 38.2895 15.1125 37.0263 16.0387 36.0526L19.5 32.3684L22.9856 36.0526C23.8875 37.0263 24.375 38.2895 24.375 39.6316C24.375 42.4474 22.1813 44.7368 19.5 44.7368ZM29.1525 40.7895C29.25 39.8421 29.6887 35.8158 26.3981 32.3158L19.5 25L12.6019 32.3158C9.28688 35.8421 9.75 39.8947 9.8475 40.7895C6.80062 37.8947 4.875 33.6579 4.875 28.9474C4.875 20.6316 10.0669 14.0789 14.6981 9.86842C15.2587 15.1053 19.4025 19.2105 24.4238 19.2105C26.325 19.2105 28.1775 18.6053 29.7375 17.4737C32.5163 20.4737 34.125 24.6053 34.125 28.9474C34.125 33.6579 32.1994 37.8947 29.1525 40.7895Z" fill="#FF5400"/>
</svg>
