<svg width="148" height="64" viewBox="0 0 148 64" fill="none" xmlns="http://www.w3.org/2000/svg">
<path d="M6.96 47.12C6.69333 47.12 6.48 47.0933 6.32 47.04H5.52H4.8H4.52L2.72 46.6L2.56 46.28C2.53333 46.28 2.52 46.1333 2.52 45.84C2.52 45.4667 2.50667 45.16 2.48 44.92L2.44 43.08C2.41333 42.68 2.4 42.08 2.4 41.28L2.32 38.2C2.32 37.5333 2.34667 36.6133 2.4 35.44L2.44 34.08C2.49333 33.2267 2.52 31.8267 2.52 29.88V29.6V29.08C2.46667 29 2.44 28.8533 2.44 28.64L2.4 28.36C2.4 27.6933 2.44 27 2.52 26.28C2.57333 25.3733 2.6 24.5467 2.6 23.8L2.56 22.68C2.53333 22.3867 2.52 22.04 2.52 21.64C2.52 21.6133 2.49333 21.5733 2.44 21.52C2.41333 21.4667 2.4 21.4133 2.4 21.36C2.4 21.0933 2.50667 20.8667 2.72 20.68C2.93333 20.4933 3.2 20.36 3.52 20.28C3.94667 20.1467 4.49333 20.08 5.16 20.08H11.92H15.04C15.0667 20.08 15.1067 20.1067 15.16 20.16C15.2133 20.2133 15.2667 20.2533 15.32 20.28C15.5333 20.4667 15.8 20.8267 16.12 21.36C16.2 21.52 16.28 21.7067 16.36 21.92C16.4667 22.1067 16.6 22.4133 16.76 22.84C16.9467 23.2667 17.2 23.92 17.52 24.8L18 26.04C18.2133 26.44 18.4533 27.0133 18.72 27.76C18.8 27.9733 18.88 28.1867 18.96 28.4C19.0667 28.6133 19.16 28.8267 19.24 29.04C19.2933 29.2267 19.3467 29.3733 19.4 29.48C19.48 29.56 19.52 29.6133 19.52 29.64C19.7067 30.0667 19.9067 30.28 20.12 30.28C20.3867 30.28 20.6 30.0667 20.76 29.64C20.7867 29.6133 20.8133 29.56 20.84 29.48C20.8667 29.3733 20.9333 29.2133 21.04 29L21.64 27.68L23.24 24.28L23.92 22.84C24 22.6267 24.0533 22.4533 24.08 22.32C24.1333 22.16 24.1867 22.0533 24.24 22C24.3467 21.76 24.6 21.3467 25 20.76C25.1333 20.5467 25.2533 20.3867 25.36 20.28C25.44 20.2533 25.4933 20.2133 25.52 20.16C25.5467 20.1067 25.5867 20.08 25.64 20.08H28.76H35.52H36.12H36.52H37.04H37.92C37.9733 20.08 38.04 20.28 38.12 20.68L38.24 24.6C38.2933 25.72 38.32 27.48 38.32 29.88V32.2C38.32 33.1067 38.28 34.12 38.2 35.24C38.12 36.36 38.0667 37.08 38.04 37.4L37.96 38.2V39.6C37.9867 39.9733 38 40.5333 38 41.28C38 42.08 38.0133 42.68 38.04 43.08C38.04 43.8533 38.0667 44.3867 38.12 44.68V45.84V46.28L38 46.6L36.2 47.04H35.92H35.2H34.4C34.2133 47.0933 33.9867 47.12 33.72 47.12C33.24 47.12 32.5733 47.0933 31.72 47.04L30.72 47C30.5333 46.9733 30.32 46.9467 30.08 46.92C29.84 46.8933 29.5467 46.88 29.2 46.88L27.64 46.76C27.5867 46.76 27.5467 46.7733 27.52 46.8H27.2C27.0667 46.8 26.9867 46.6533 26.96 46.36C26.8 45.8267 26.72 44.92 26.72 43.64C26.72 42.7867 26.7067 42.12 26.68 41.64L26.64 39.48C26.6133 39 26.6 38.3067 26.6 37.4C26.6 37.1867 26.5067 37.08 26.32 37.08C26.2133 37.08 26.1067 37.2133 26 37.48L25.56 38.56L25.2 39.56C25.1467 39.72 25.0933 39.88 25.04 40.04C24.9867 40.2 24.92 40.3467 24.84 40.48L24.64 40.96C24.4 41.4933 24.0933 42.0933 23.72 42.76C23.32 43.48 22.8267 44.0533 22.24 44.48C21.92 44.6667 21.64 44.76 21.4 44.76H20.8C20.48 44.76 20.2133 44.7333 20 44.68H19.12H18.32C17.2533 42.9733 16.2533 41.1067 15.32 39.08L14.72 37.6C14.56 37.2533 14.4533 37.08 14.4 37.08C14.2133 37.08 14.12 37.1867 14.12 37.4V39.28C14.12 41.1467 14.0933 42.52 14.04 43.4C13.9867 44.7867 13.8933 45.7467 13.76 46.28C13.7333 46.6267 13.6533 46.8 13.52 46.8H13.24L13.04 46.76C12.1333 46.8133 11.4133 46.8667 10.88 46.92C10.56 46.9467 10 46.9867 9.2 47.04C8.4 47.0933 7.65333 47.12 6.96 47.12ZM46.1859 47C46.0526 47 45.8526 46.9867 45.5859 46.96C45.3193 46.9067 44.9993 46.8667 44.6259 46.84L43.7859 46.64C43.6526 46.6133 43.5459 46.5867 43.4659 46.56C43.4126 46.5067 43.3993 46.4667 43.4259 46.44C43.4259 45.7467 43.3859 44.8267 43.3059 43.68C43.3059 43.28 43.2926 42.9333 43.2659 42.64C43.2393 42.32 43.2126 42.0533 43.1859 41.84L43.1059 40.12C43.1059 39.6667 43.0793 39.0933 43.0259 38.4L42.9859 37.16C42.9859 36.1467 42.9726 35.36 42.9459 34.8C42.9193 34.24 42.9059 33.0667 42.9059 31.28C42.9059 29.6 42.9193 27.8667 42.9459 26.08C42.9726 24.2933 43.0526 22.6 43.1859 21C43.1859 20.7067 43.5059 20.4667 44.1459 20.28C44.5459 20.2267 45.2126 20.2 46.1459 20.2C48.3059 20.2 49.8926 20.16 50.9059 20.08C54.0526 20.0267 56.4259 20 58.0259 20H59.7859C61.9726 20.0533 63.6526 20.1333 64.8259 20.24C65.2526 20.24 65.5593 20.7467 65.7459 21.76C65.8259 21.9467 65.9193 22.4267 66.0259 23.2C66.1059 23.6 66.2126 24.0933 66.3459 24.68C66.3726 24.84 66.3726 25 66.3459 25.16C66.3459 25.2933 66.3459 25.3733 66.3459 25.4C66.3193 25.6667 66.1726 25.8 65.9059 25.8C65.7993 25.7733 65.6393 25.76 65.4259 25.76C64.3059 25.76 62.9326 25.8533 61.3059 26.04L59.1859 26.2C58.3059 26.3067 57.6126 26.3733 57.1059 26.4C57.0259 26.4 56.9193 26.56 56.7859 26.88C56.6793 27.2267 56.5593 28.0267 56.4259 29.28L56.3459 30.28C56.3459 30.6267 56.3859 30.8533 56.4659 30.96C56.5459 31.04 56.7193 31.08 56.9859 31.08H60.5459C61.5859 31.08 62.7726 31.1467 64.1059 31.28H64.5859C64.9326 31.36 65.1459 31.4933 65.2259 31.68C65.3326 31.84 65.3993 32.0133 65.4259 32.2L65.5859 35.76V35.88C65.5859 36.3333 65.1059 36.6 64.1459 36.68C63.5859 36.8133 62.5193 36.88 60.9459 36.88C59.5859 36.88 58.7059 36.8667 58.3059 36.84C57.5326 36.84 57.0659 36.8533 56.9059 36.88C56.6126 36.96 56.4259 37.12 56.3459 37.36C56.2659 37.5733 56.2259 37.9467 56.2259 38.48C56.2259 38.8267 56.1993 39.32 56.1459 39.96C56.1193 40.28 56.1059 40.7867 56.1059 41.48C57.8393 41.48 59.1193 41.4533 59.9459 41.4C60.8526 41.32 62.1326 41.28 63.7859 41.28C63.8926 41.28 63.9993 41.3733 64.1059 41.56C64.2393 41.8267 64.4526 42.4267 64.7459 43.36C64.9059 43.8933 65.0659 44.56 65.2259 45.36C65.2793 45.5467 65.3059 45.7467 65.3059 45.96C65.3059 46.52 65.0393 46.8 64.5059 46.8C63.8126 46.8 62.8793 46.8267 61.7059 46.88C61.0926 46.9333 60.1326 46.96 58.8259 46.96C56.0259 46.96 53.9193 46.9733 52.5059 47H46.1859ZM77.1603 47.04C76.787 47.04 76.507 46.7867 76.3203 46.28C75.9203 45.4 75.7203 43.8 75.7203 41.48C75.7203 39.24 75.7603 36.6667 75.8403 33.76C75.867 32.8267 75.8803 31.3867 75.8803 29.44L75.7603 29.28H71.3203C70.9736 29.28 70.6936 29.0933 70.4803 28.72C70.2936 28.32 70.147 27.7733 70.0403 27.08C69.907 26.28 69.8403 25.1333 69.8403 23.64V23.08C69.8403 22.8133 69.8536 22.6 69.8803 22.44V21.84V21.48C69.8803 21.32 69.9603 21.1867 70.1203 21.08C70.2803 20.9467 70.467 20.8533 70.6803 20.8C70.947 20.72 71.347 20.68 71.8803 20.68H74.9203C75.587 20.68 76.0936 20.6933 76.4403 20.72L77.9203 20.76H92.3203C93.3603 20.76 94.0403 20.7733 94.3603 20.8C94.4936 20.8267 94.6803 20.8533 94.9203 20.88C95.1603 20.9067 95.3336 20.96 95.4403 21.04C95.627 21.12 95.7336 21.2267 95.7603 21.36C95.8136 21.4667 95.8403 21.64 95.8403 21.88V28.48C95.8403 28.7733 95.7203 28.9733 95.4803 29.08C95.3203 29.1333 95.107 29.16 94.8403 29.16H93.5603H92.2403C91.627 29.16 91.1603 29.1333 90.8403 29.08H89.6403C89.4003 29.08 89.267 29.1333 89.2403 29.24C89.2403 29.2667 89.227 29.3067 89.2003 29.36C89.1736 29.3867 89.1603 29.4267 89.1603 29.48V30.08V31.44C89.1603 31.84 89.147 32.1467 89.1203 32.36C89.1203 33.1333 89.067 34.8267 88.9603 37.44L88.8803 38.64C88.827 39.76 88.7736 40.5733 88.7203 41.08V44.88C88.7203 45.7867 88.5336 46.36 88.1603 46.6C87.8136 46.7333 87.5736 46.8133 87.4403 46.84L86.4403 46.88C85.4003 46.88 84.667 46.9067 84.2403 46.96L80.0403 47C79.507 47.0267 78.547 47.04 77.1603 47.04ZM102.827 47C102.693 47 102.493 46.9867 102.227 46.96C101.96 46.9067 101.64 46.8667 101.267 46.84L100.427 46.64C100.293 46.6133 100.187 46.5867 100.107 46.56C100.053 46.5067 100.04 46.4667 100.067 46.44C100.067 45.7467 100.027 44.8267 99.9466 43.68C99.9466 43.28 99.9332 42.9333 99.9066 42.64C99.8799 42.32 99.8532 42.0533 99.8266 41.84L99.7466 40.12C99.7466 39.6667 99.7199 39.0933 99.6666 38.4L99.6266 37.16C99.6266 36.1467 99.6132 35.36 99.5866 34.8C99.5599 34.24 99.5466 33.0667 99.5466 31.28C99.5466 29.6 99.5599 27.8667 99.5866 26.08C99.6132 24.2933 99.6932 22.6 99.8266 21C99.8266 20.7067 100.147 20.4667 100.787 20.28C101.187 20.2267 101.853 20.2 102.787 20.2C104.947 20.2 106.533 20.16 107.547 20.08C110.693 20.0267 113.067 20 114.667 20H116.427C118.613 20.0533 120.293 20.1333 121.467 20.24C121.893 20.24 122.2 20.7467 122.387 21.76C122.467 21.9467 122.56 22.4267 122.667 23.2C122.747 23.6 122.853 24.0933 122.987 24.68C123.013 24.84 123.013 25 122.987 25.16C122.987 25.2933 122.987 25.3733 122.987 25.4C122.96 25.6667 122.813 25.8 122.547 25.8C122.44 25.7733 122.28 25.76 122.067 25.76C120.947 25.76 119.573 25.8533 117.947 26.04L115.827 26.2C114.947 26.3067 114.253 26.3733 113.747 26.4C113.667 26.4 113.56 26.56 113.427 26.88C113.32 27.2267 113.2 28.0267 113.067 29.28L112.987 30.28C112.987 30.6267 113.027 30.8533 113.107 30.96C113.187 31.04 113.36 31.08 113.627 31.08H117.187C118.227 31.08 119.413 31.1467 120.747 31.28H121.227C121.573 31.36 121.787 31.4933 121.867 31.68C121.973 31.84 122.04 32.0133 122.067 32.2L122.227 35.76V35.88C122.227 36.3333 121.747 36.6 120.787 36.68C120.227 36.8133 119.16 36.88 117.587 36.88C116.227 36.88 115.347 36.8667 114.947 36.84C114.173 36.84 113.707 36.8533 113.547 36.88C113.253 36.96 113.067 37.12 112.987 37.36C112.907 37.5733 112.867 37.9467 112.867 38.48C112.867 38.8267 112.84 39.32 112.787 39.96C112.76 40.28 112.747 40.7867 112.747 41.48C114.48 41.48 115.76 41.4533 116.587 41.4C117.493 41.32 118.773 41.28 120.427 41.28C120.533 41.28 120.64 41.3733 120.747 41.56C120.88 41.8267 121.093 42.4267 121.387 43.36C121.547 43.8933 121.707 44.56 121.867 45.36C121.92 45.5467 121.947 45.7467 121.947 45.96C121.947 46.52 121.68 46.8 121.147 46.8C120.453 46.8 119.52 46.8267 118.347 46.88C117.733 46.9333 116.773 46.96 115.467 46.96C112.667 46.96 110.56 46.9733 109.147 47H102.827Z" fill="#FF5400"/>
</svg>
