<svg width="291" height="66" viewBox="0 0 291 66" fill="none" xmlns="http://www.w3.org/2000/svg">
<path d="M11.704 65.288C11.064 65.288 10.552 65.224 10.168 65.096H8.248H6.52H5.848L1.528 64.04L1.144 63.272C1.08 63.272 1.048 62.92 1.048 62.216C1.048 61.32 1.016 60.584 0.952 60.008L0.856 55.592C0.792 54.632 0.76 53.192 0.76 51.272L0.568 43.88C0.568 42.28 0.632 40.072 0.76 37.256L0.856 33.992C0.984 31.944 1.048 28.584 1.048 23.912V23.24V21.992C0.92 21.8 0.856 21.448 0.856 20.936L0.76 20.264C0.76 18.664 0.856 17 1.048 15.272C1.176 13.096 1.24 11.112 1.24 9.32L1.144 6.632C1.08 5.928 1.048 5.096 1.048 4.136C1.048 4.072 0.984 3.976 0.856 3.848C0.792 3.72 0.76 3.592 0.76 3.464C0.76 2.824 1.016 2.28 1.528 1.832C2.04 1.384 2.68 1.064 3.448 0.871996C4.472 0.551996 5.784 0.391996 7.384 0.391996H23.608H31.096C31.16 0.391996 31.256 0.455997 31.384 0.584C31.512 0.711998 31.64 0.807997 31.768 0.871996C32.28 1.32 32.92 2.184 33.688 3.464C33.88 3.848 34.072 4.296 34.264 4.808C34.52 5.256 34.84 5.992 35.224 7.016C35.672 8.04 36.28 9.608 37.048 11.72L38.2 14.696C38.712 15.656 39.288 17.032 39.928 18.824C40.12 19.336 40.312 19.848 40.504 20.36C40.76 20.872 40.984 21.384 41.176 21.896C41.304 22.344 41.432 22.696 41.56 22.952C41.752 23.144 41.848 23.272 41.848 23.336C42.296 24.36 42.776 24.872 43.288 24.872C43.928 24.872 44.44 24.36 44.824 23.336C44.888 23.272 44.952 23.144 45.016 22.952C45.08 22.696 45.24 22.312 45.496 21.8L46.936 18.632L50.776 10.472L52.408 7.016C52.6 6.504 52.728 6.088 52.792 5.768C52.92 5.384 53.048 5.128 53.176 5C53.432 4.424 54.04 3.432 55 2.024C55.32 1.512 55.608 1.128 55.864 0.871996C56.056 0.807997 56.184 0.711998 56.248 0.584C56.312 0.455997 56.408 0.391996 56.536 0.391996H64.024H80.248H81.688H82.648H83.896H86.008C86.136 0.391996 86.296 0.871996 86.488 1.832L86.776 11.24C86.904 13.928 86.968 18.152 86.968 23.912V29.48C86.968 31.656 86.872 34.088 86.68 36.776C86.488 39.464 86.36 41.192 86.296 41.96L86.104 43.88V47.24C86.168 48.136 86.2 49.48 86.2 51.272C86.2 53.192 86.232 54.632 86.296 55.592C86.296 57.448 86.36 58.728 86.488 59.432V62.216V63.272L86.2 64.04L81.88 65.096H81.208H79.48H77.56C77.112 65.224 76.568 65.288 75.928 65.288C74.776 65.288 73.176 65.224 71.128 65.096L68.728 65C68.28 64.936 67.768 64.872 67.192 64.808C66.616 64.744 65.912 64.712 65.08 64.712L61.336 64.424C61.208 64.424 61.112 64.456 61.048 64.52H60.28C59.96 64.52 59.768 64.168 59.704 63.464C59.32 62.184 59.128 60.008 59.128 56.936C59.128 54.888 59.096 53.288 59.032 52.136L58.936 46.952C58.872 45.8 58.84 44.136 58.84 41.96C58.84 41.448 58.616 41.192 58.168 41.192C57.912 41.192 57.656 41.512 57.4 42.152L56.344 44.744L55.48 47.144C55.352 47.528 55.224 47.912 55.096 48.296C54.968 48.68 54.808 49.032 54.616 49.352L54.136 50.504C53.56 51.784 52.824 53.224 51.928 54.824C50.968 56.552 49.784 57.928 48.376 58.952C47.608 59.4 46.936 59.624 46.36 59.624H44.92C44.152 59.624 43.512 59.56 43 59.432H40.888H38.968C36.408 55.336 34.008 50.856 31.768 45.992L30.328 42.44C29.944 41.608 29.688 41.192 29.56 41.192C29.112 41.192 28.888 41.448 28.888 41.96V46.472C28.888 50.952 28.824 54.248 28.696 56.36C28.568 59.688 28.344 61.992 28.024 63.272C27.96 64.104 27.768 64.52 27.448 64.52H26.776L26.296 64.424C24.12 64.552 22.392 64.68 21.112 64.808C20.344 64.872 19 64.968 17.08 65.096C15.16 65.224 13.368 65.288 11.704 65.288ZM105.846 65C105.526 65 105.046 64.968 104.406 64.904C103.766 64.776 102.998 64.68 102.102 64.616L100.086 64.136C99.7663 64.072 99.5103 64.008 99.3183 63.944C99.1903 63.816 99.1583 63.72 99.2223 63.656C99.2223 61.992 99.1263 59.784 98.9343 57.032C98.9343 56.072 98.9023 55.24 98.8383 54.536C98.7743 53.768 98.7103 53.128 98.6463 52.616L98.4543 48.488C98.4543 47.4 98.3903 46.024 98.2623 44.36L98.1663 41.384C98.1663 38.952 98.1343 37.064 98.0703 35.72C98.0063 34.376 97.9743 31.56 97.9743 27.272C97.9743 23.24 98.0063 19.08 98.0703 14.792C98.1343 10.504 98.3263 6.44 98.6463 2.6C98.6463 1.896 99.4143 1.32 100.95 0.871996C101.91 0.743998 103.51 0.679998 105.75 0.679998C110.934 0.679998 114.742 0.583998 117.174 0.391996C124.726 0.263998 130.422 0.199999 134.262 0.199999H138.486C143.734 0.327997 147.766 0.519997 150.582 0.775997C151.606 0.775997 152.342 1.992 152.79 4.424C152.982 4.872 153.206 6.024 153.462 7.88C153.654 8.84 153.91 10.024 154.23 11.432C154.294 11.816 154.294 12.2 154.23 12.584C154.23 12.904 154.23 13.096 154.23 13.16C154.166 13.8 153.814 14.12 153.174 14.12C152.918 14.056 152.534 14.024 152.022 14.024C149.334 14.024 146.038 14.248 142.134 14.696L137.046 15.08C134.934 15.336 133.27 15.496 132.054 15.56C131.862 15.56 131.606 15.944 131.286 16.712C131.03 17.544 130.742 19.464 130.422 22.472L130.23 24.872C130.23 25.704 130.326 26.248 130.518 26.504C130.71 26.696 131.126 26.792 131.766 26.792H140.31C142.806 26.792 145.654 26.952 148.854 27.272H150.006C150.838 27.464 151.35 27.784 151.542 28.232C151.798 28.616 151.958 29.032 152.022 29.48L152.406 38.024V38.312C152.406 39.4 151.254 40.04 148.95 40.232C147.606 40.552 145.046 40.712 141.27 40.712C138.006 40.712 135.894 40.68 134.934 40.616C133.078 40.616 131.958 40.648 131.574 40.712C130.87 40.904 130.422 41.288 130.23 41.864C130.038 42.376 129.942 43.272 129.942 44.552C129.942 45.384 129.878 46.568 129.75 48.104C129.686 48.872 129.654 50.088 129.654 51.752C133.814 51.752 136.886 51.688 138.87 51.56C141.046 51.368 144.118 51.272 148.086 51.272C148.342 51.272 148.598 51.496 148.854 51.944C149.174 52.584 149.686 54.024 150.39 56.264C150.774 57.544 151.158 59.144 151.542 61.064C151.67 61.512 151.734 61.992 151.734 62.504C151.734 63.848 151.094 64.52 149.814 64.52C148.15 64.52 145.91 64.584 143.094 64.712C141.622 64.84 139.318 64.904 136.182 64.904C129.462 64.904 124.406 64.936 121.014 65H105.846ZM180.185 65.096C179.289 65.096 178.617 64.488 178.169 63.272C177.209 61.16 176.729 57.32 176.729 51.752C176.729 46.376 176.825 40.2 177.017 33.224C177.081 30.984 177.113 27.528 177.113 22.856L176.825 22.472H166.169C165.337 22.472 164.665 22.024 164.153 21.128C163.705 20.168 163.353 18.856 163.097 17.192C162.777 15.272 162.617 12.52 162.617 8.936V7.592C162.617 6.952 162.649 6.44 162.713 6.056V4.616V3.752C162.713 3.368 162.905 3.048 163.289 2.792C163.673 2.472 164.121 2.248 164.633 2.12C165.273 1.928 166.233 1.832 167.513 1.832H174.809C176.409 1.832 177.625 1.864 178.457 1.928L182.009 2.024H216.569C219.065 2.024 220.697 2.056 221.465 2.12C221.785 2.184 222.233 2.248 222.809 2.31199C223.385 2.376 223.801 2.504 224.057 2.696C224.505 2.888 224.761 3.144 224.825 3.464C224.953 3.72 225.017 4.136 225.017 4.712V20.552C225.017 21.256 224.729 21.736 224.153 21.992C223.769 22.12 223.257 22.184 222.617 22.184H219.545H216.377C214.905 22.184 213.785 22.12 213.017 21.992H210.137C209.561 21.992 209.241 22.12 209.177 22.376C209.177 22.44 209.145 22.536 209.081 22.664C209.017 22.728 208.985 22.824 208.985 22.952V24.392V27.656C208.985 28.616 208.953 29.352 208.889 29.864C208.889 31.72 208.761 35.784 208.505 42.056L208.313 44.936C208.185 47.624 208.057 49.576 207.929 50.792V59.912C207.929 62.088 207.481 63.464 206.585 64.04C205.753 64.36 205.177 64.552 204.857 64.616L202.457 64.712C199.961 64.712 198.201 64.776 197.177 64.904L187.097 65C185.817 65.064 183.513 65.096 180.185 65.096ZM241.784 65C241.464 65 240.984 64.968 240.344 64.904C239.704 64.776 238.936 64.68 238.04 64.616L236.024 64.136C235.704 64.072 235.448 64.008 235.256 63.944C235.128 63.816 235.096 63.72 235.16 63.656C235.16 61.992 235.064 59.784 234.872 57.032C234.872 56.072 234.84 55.24 234.776 54.536C234.712 53.768 234.648 53.128 234.584 52.616L234.392 48.488C234.392 47.4 234.328 46.024 234.2 44.36L234.104 41.384C234.104 38.952 234.072 37.064 234.008 35.72C233.944 34.376 233.912 31.56 233.912 27.272C233.912 23.24 233.944 19.08 234.008 14.792C234.072 10.504 234.264 6.44 234.584 2.6C234.584 1.896 235.352 1.32 236.888 0.871996C237.848 0.743998 239.448 0.679998 241.688 0.679998C246.872 0.679998 250.68 0.583998 253.112 0.391996C260.664 0.263998 266.36 0.199999 270.2 0.199999H274.424C279.672 0.327997 283.704 0.519997 286.52 0.775997C287.544 0.775997 288.28 1.992 288.728 4.424C288.92 4.872 289.144 6.024 289.4 7.88C289.592 8.84 289.848 10.024 290.168 11.432C290.232 11.816 290.232 12.2 290.168 12.584C290.168 12.904 290.168 13.096 290.168 13.16C290.104 13.8 289.752 14.12 289.112 14.12C288.856 14.056 288.472 14.024 287.96 14.024C285.272 14.024 281.976 14.248 278.072 14.696L272.984 15.08C270.872 15.336 269.208 15.496 267.992 15.56C267.8 15.56 267.544 15.944 267.224 16.712C266.968 17.544 266.68 19.464 266.36 22.472L266.168 24.872C266.168 25.704 266.264 26.248 266.456 26.504C266.648 26.696 267.064 26.792 267.704 26.792H276.248C278.744 26.792 281.592 26.952 284.792 27.272H285.944C286.776 27.464 287.288 27.784 287.48 28.232C287.736 28.616 287.896 29.032 287.96 29.48L288.344 38.024V38.312C288.344 39.4 287.192 40.04 284.888 40.232C283.544 40.552 280.984 40.712 277.208 40.712C273.944 40.712 271.832 40.68 270.872 40.616C269.016 40.616 267.896 40.648 267.512 40.712C266.808 40.904 266.36 41.288 266.168 41.864C265.976 42.376 265.88 43.272 265.88 44.552C265.88 45.384 265.816 46.568 265.688 48.104C265.624 48.872 265.592 50.088 265.592 51.752C269.752 51.752 272.824 51.688 274.808 51.56C276.984 51.368 280.056 51.272 284.024 51.272C284.28 51.272 284.536 51.496 284.792 51.944C285.112 52.584 285.624 54.024 286.328 56.264C286.712 57.544 287.096 59.144 287.48 61.064C287.608 61.512 287.672 61.992 287.672 62.504C287.672 63.848 287.032 64.52 285.752 64.52C284.088 64.52 281.848 64.584 279.032 64.712C277.56 64.84 275.256 64.904 272.12 64.904C265.4 64.904 260.344 64.936 256.952 65H241.784Z" fill="#FF5400"/>
</svg>
